<?xml version="1.0" encoding="UTF-8" standalone="no"?>
<!DOCTYPE svg PUBLIC "-//W3C//DTD SVG 1.1//EN" "http://www.w3.org/Graphics/SVG/1.1/DTD/svg11.dtd">
<svg width="100%" height="100%" viewBox="0 0 1000 1000" version="1.1" xmlns="http://www.w3.org/2000/svg" xmlns:xlink="http://www.w3.org/1999/xlink" xml:space="preserve" xmlns:serif="http://www.serif.com/" style="fill-rule:evenodd;clip-rule:evenodd;stroke-linecap:round;stroke-linejoin:round;stroke-miterlimit:1.5;">
    <g id="head" transform="matrix(1.82941,0,0,1.89412,-383.753,-632.435)">
        <circle cx="488" cy="572" r="170" style="fill:rgb(48,68,90);stroke:black;stroke-width:2.42px;"/>
    </g>
    <g id="mouth" transform="matrix(0.999998,0.00173322,0.00173322,-0.999998,-6.02878,1189.13)">
        <path d="M644.693,636.5C659.307,623.578 667,608.921 667,594C667,547.087 592.394,509 500.5,509C408.606,509 334,547.087 334,594C334,608.921 341.693,623.578 356.307,636.5L644.693,636.5Z" style="fill:rgb(235,235,235);stroke:black;stroke-width:4.5px;"/>
    </g>
    <g id="eyes" transform="matrix(1,0,0,1,-60,-10)">
        <circle cx="420" cy="332" r="69" style="fill:rgb(235,235,235);stroke:black;stroke-width:4.5px;"/>
    </g>
    <g id="eyes1" serif:id="eyes" transform="matrix(1,0,0,1,234,-10)">
        <circle cx="420" cy="332" r="69" style="fill:rgb(235,235,235);stroke:black;stroke-width:4.5px;"/>
    </g>
</svg>
