<svg viewBox="0 0 2019 2325" xmlns="http://www.w3.org/2000/svg" stroke-linecap="round" stroke-linejoin="round" stroke-miterlimit="1.5">
  <title>lion svg</title>
  <defs>
    <style>
      svg {
        --skin: #f5e0bb;
        --hair: #e7ac6f;
        --black: #000000;
        --white: #ffffff;
        --body: #ffffff;
      }

      @media(prefers-color-scheme: dark) {
        svg {
          --skin: red;
          --hair: black;
          --black: white;
          --white: lime;
          --body: black;
        }
        
        svg:hover {
          --skin: white;
        }
      }
    </style>
  </defs>
  <ellipse id="body" cx="981.827" cy="1893.63" rx="323.287" ry="270.295" fill="var(--body)" />
  <g id="tail">
    <path d="M1598.94 2116.86s130.685 55.142 144.116-79.972c128.672 51.694-23.291 242.392-192.941 130.646 89.938-119.487 48.825-50.674 48.825-50.674Z" fill="var(--skin)" />
    <path id="tail-fur" d="M1768.45 1816.87s-132.584 169.816-6.362 234.948c75.486 26.282 148.327-6.855 163.78-64.759 15.454-57.904 7.884-79.073 31.451-111.21 18.116-24.704-45.844 1.027-45.844 1.027s65.783-95.804 8.303-147.299c-45.627 52.118-55.635 75.41-96.632 77.825-11.552 4.137-35.144 33.998-36.502 47.547-1.358 13.55-18.194-38.079-18.194-38.079Z" fill="var(--hair)" />
  </g>
  <g id="arms" fill="var(--skin)">
    <path d="M599.465 1564.09s-106.135 571.864 185.757 670.845c139.135 47.181 203.65-21.152 206.615-109.917 2.966-88.764-328.196-205.518-157.287-616.837-236.131 58.557-235.085 55.909-235.085 55.909Z" />
    <path d="M1383.56 1559.41s106.135 571.864-185.757 670.845c-139.136 47.181-203.65-21.152-206.616-109.917-2.966-88.764 328.196-205.518 157.287-616.837 236.131 58.557 235.086 55.909 235.086 55.909Z" />
  </g>
  <g id="paw">
    <path d="M556.152 1798.7c-41.385-20.064-352.36-82.885-199.781 269.292 58.976 143.383 215.854 234.42 301.593 72.937 41.126-77.459-60.426-322.166-101.812-342.229Z" fill="var(--skin)" />
    <path d="M449.399 1974.68c22.114-24.976 60.721-23.015 89.321-12.428 14.188 5.252 51.817 46.815 36.515 68.732-5.113 7.325-29.564 13.789-43.006 15.67-15.457 2.163-24.778 2.791-32.704 8.88-32.05 24.622-45.818 27.103-62.659 8.874-15.204-16.459-14.694-58.977 12.533-89.728Zm-83.256-54.32c14.895-8.12 35.134.233 45.168 18.641 10.034 18.408 6.088 39.945-8.807 48.064s-35.134-.234-45.168-18.642c-10.034-18.408-6.088-39.944 8.807-48.063Zm65.076-65.08c14.895-8.12 35.134.233 45.168 18.641 10.034 18.408 6.088 39.945-8.807 48.064s-35.134-.234-45.168-18.642c-10.034-18.408-6.088-39.944 8.807-48.063Zm98.311 7.55c16.46-4.104 33.942 9.079 39.014 29.421 5.072 20.343-4.174 40.19-20.634 44.294-16.461 4.104-33.942-9.08-39.014-29.422-5.072-20.342 4.174-40.189 20.634-44.293Z" fill="var(--hair)" />
  </g>
  <g id="paw1">
    <path d="M1418.86 1798.7c41.385-20.064 352.36-82.885 199.781 269.292-58.975 143.383-215.854 234.42-301.593 72.937-41.126-77.459 60.426-322.166 101.812-342.229Z" fill="var(--skin)" />
    <path d="M1525.61 1974.68c-22.114-24.976-60.721-23.015-89.321-12.428-14.188 5.252-51.817 46.815-36.515 68.732 5.113 7.325 29.564 13.789 43.006 15.67 15.457 2.163 24.779 2.791 32.704 8.88 32.05 24.622 45.818 27.103 62.659 8.874 15.204-16.459 14.694-58.977-12.533-89.728Zm83.26-54.32c-14.895-8.12-35.134.233-45.168 18.641-10.034 18.408-6.088 39.945 8.807 48.064s35.134-.234 45.168-18.642c10.034-18.408 6.088-39.944-8.807-48.063Zm-65.08-65.08c-14.895-8.12-35.134.233-45.168 18.641-10.034 18.408-6.088 39.945 8.807 48.064s35.134-.234 45.169-18.642c10.034-18.408 6.087-39.944-8.808-48.063Zm-98.31 7.55c-16.46-4.104-33.942 9.079-39.014 29.421-5.071 20.343 4.174 40.19 20.635 44.294 16.46 4.104 33.941-9.08 39.013-29.422 5.072-20.342-4.174-40.189-20.634-44.293Z" fill="var(--hair)" />
  </g>
  <g id="face">
    <path id="fur" d="M1046.91 225.433c-41.196-195.506-233.205-277.544-346.104-55.225-92.486-119.04-354.628-120.03-296.469 169.468-151.56-43.687-324.048 61.626-175.889 225.752C65.387 596.867-43.719 804.615 181.649 865.25 50.457 932.145-28.07 1139.632 161.46 1192.643c-95.298 81.069-85.301 361.514 171.88 261.012-44.845 93.429 117.581 353.768 313.062 139.116 23.721 146.823 230.049 252.08 329.037 60.14 55.861 137.462 260.778 173.516 325.982-18.35 87.534 114.572 307.633 160.801 329.028-116.898 55.787 90.178 344.052 1.449 203.442-258.657 134.845 9.044 170.171-272.429-12.856-317.779 145.188-19.592 205.608-252.613-30.28-312.8 85.281-9.866 160.678-268.57-114.796-254.089 47.48-76.976 35.166-346.929-273.588-170.115 9.623-80.517-120.924-313.961-355.461 21.21Z" fill="var(--hair)" />
    <path d="M1021.37 418.141s-94.581-11.035-202.422 28.717c26.051-47.653-56.483-319.074-257.226-183.929-108.654 73.148-98.758 216.645.282 295.018-61.883 88.985-148.714 351.34-164.18 435.708-15.467 84.368-86.187 473.499 337.78 491.844 110.306 4.772 174.385 2.039 252.838-26.051 58.865 16.313 259.46 118.478 475.636-8.634 216.177-127.112 179.771-529.989 30.236-853.795 100.364-.662 153.284-235.822-3.655-306.388-135.842-61.079-236.419 62.439-232.181 188.969-82.135-63.481-237.108-61.459-237.108-61.459Z" fill="var(--skin)" />
    <path d="M645.732 338.887c19.85 0 41.717 6.611 64.596 20.325 29.402 17.624 41.975 61.529 41.163 88.049-.691 22.574-28.377 41.382-57.024 54.066-21.052 9.322-32.075 10.447-56.505 14.987-41.577 7.727-59.155-55.398-59.155-100.626 0-45.227 24.731-76.801 66.925-76.801Zm783.158 35.178c-19.85 0-41.717 6.61-64.596 20.325-29.402 17.623-41.975 61.528-41.163 88.049.691 22.573 28.378 41.381 57.025 54.066 21.051 9.321 19.263 15.806 43.692 20.346 41.578 7.727 71.968-60.758 71.968-105.985 0-45.228-24.732-76.801-66.926-76.801Z" fill="var(--hair)" />
    <path d="M953.118 428.486s-78.353 583.719-123.717 647.638c63.927-34.784 220.108-52.219 343.807 14.487-27.944-65.493-59.451-629.966-54.653-658.233-37.653-3.781-42.074-5.927-102.218-7.607-20.482-.572-38.82-.915-63.219 3.715Z" fill="#fff" />
    <g fill="none" stroke="var(--black)" stroke-width="29.17">
      <path d="m604.556 1125.41-297.328-102.572m276.031 192.112-323.386-41.666M573.34 1309.35l-278.542 35.739m1119.122 9.201 273.405 62.565M1411.12 1257.57l331.416-3.947m-341.756-86.533 309.665-76.622" />
    </g>
  </g>
  <g id="eyes">
    <ellipse cx="711.328" cy="917.66" rx="55.363" ry="73.793" fill="var(--black)" />
    <ellipse cx="1316.41" cy="944.455" rx="55.363" ry="73.793" fill="var(--black)" />
  </g>
  <g id="mouth">
    <path d="M990.634 1460.71s289.336 183.789 354.751-163.165c2.284-124.283-87.558-178.329-167.257-203.539-79.7-25.21-516.246-102.45-533.178 162.023 17.685 240.555 151.309 272.902 345.684 204.681Z" fill="#fff" />
    <ellipse cx="735.22" cy="1328.56" rx="15.057" ry="14.887" />
    <ellipse cx="821.344" cy="1237.23" rx="15.057" ry="14.887" />
    <ellipse cx="860.758" cy="1355.53" rx="15.057" ry="14.887" />
    <ellipse cx="1180.34" cy="1263" rx="15.057" ry="14.887" />
    <path d="M992.371 1253.56c-66.683-29.134-166.616-109.557-161.074-160.272 7.243-66.274 255.537-63.452 344.446-1.333 2.456 70.085-92.736 133.691-183.372 161.605Z" />
    <ellipse cx="1105.31" cy="1359.98" rx="15.057" ry="14.887" />
    <ellipse cx="1233.45" cy="1370.78" rx="15.057" ry="14.887" />
    <path d="m988.471 1430.88 6.715-215.16" fill="none" stroke="#000" stroke-width="20.83" />
  </g>
</svg>