<svg width="100%" height="100%" viewBox="0 0 1024 1024" preserveAspectRatio="none" xmlns="http://www.w3.org/2000/svg" color="#B94700" class="Icon__SVGContent-sc-sb5wdu-0 klOIep quote-symbol"><path d="M268.6,189.8C150.7,210.7,56,279.5,56,419.6c0,106.9,63.9,151.1,132.7,151.1s116.7-49.2,116.7-110.6
c0-65.1-43-104.4-94.6-104.4c-11.1,0-17.2,1.2-24.6,1.2c-7.4,1.2-12.3-3.7-12.3-12.3c0-27,25.8-60.2,116.7-83.6
c22.1-4.9,31.9-23.3,25.8-46.7C310.4,193.5,294.4,184.9,268.6,189.8z M554.9,189.8c-118,20.9-212.6,89.7-212.6,229.8
c0,106.9,63.9,151.1,132.7,151.1s116.7-49.2,116.7-110.6c0-65.1-43-104.4-94.6-104.4c-11.1,0-16,1.2-24.6,1.2
c-7.4,1.2-12.3-3.7-12.3-12.3c0-27,27-60.2,116.7-83.6c23.3-4.9,31.9-23.3,25.8-46.7C596.7,193.5,580.7,184.9,554.9,189.8z"></path></svg>
